<?xml version="1.0" encoding="iso-8859-1"?>
<!-- Generator: Adobe Illustrator 19.0.0, SVG Export Plug-In . SVG Version: 6.00 Build 0)  -->
<svg version="1.1" id="Layer_1" xmlns="http://www.w3.org/2000/svg" xmlns:xlink="http://www.w3.org/1999/xlink" x="0px" y="0px"
	 viewBox="0 0 512 512" style="enable-background:new 0 0 512 512;" xml:space="preserve">
<circle style="fill:#E16B5A;" cx="256" cy="256" r="256"/>
<path style="fill:#F5F5F5;" d="M192,64h176c4.4,0,8,3.6,8,8v328c0,4.4-3.6,8-8,8H120c-4.4,0-8-3.6-8-8V148L192,64z"/>
<path style="fill:#E6E6E6;" d="M184,148c4.4,0,8-3.6,8-8V64l-80,84H184z"/>
<circle style="fill:#2179A6;" cx="352" cy="384" r="52"/>
<path style="fill:#F5F5F5;" d="M340,408c-1.024,0-2.048-0.392-2.828-1.172l-16-16c-1.564-1.564-1.564-4.092,0-5.656
	s4.092-1.564,5.656,0L340,398.344l37.172-37.172c1.564-1.564,4.092-1.564,5.656,0s1.564,4.092,0,5.656l-40,40
	C342.048,407.608,341.024,408,340,408z"/>
<g>
</g>
<g>
</g>
<g>
</g>
<g>
</g>
<g>
</g>
<g>
</g>
<g>
</g>
<g>
</g>
<g>
</g>
<g>
</g>
<g>
</g>
<g>
</g>
<g>
</g>
<g>
</g>
<g>
</g>
</svg>
