<svg width="4915" height="3998" viewBox="0 0 4915 3998" fill="none" xmlns="http://www.w3.org/2000/svg">
<path fill-rule="evenodd" clip-rule="evenodd" d="M133.166 3657.82L129.612 3505.25H262.097V3359.95H4727.98V3505.25H4833.87V3658.39H4915V3811.56H0V3658.39H133.166V3657.82ZM481.6 1054.33H262.097L2521.65 0L4781.2 1054.33H4533.12V3359.95H481.6V1054.33Z" fill="white"/>
<path fill-rule="evenodd" clip-rule="evenodd" d="M4833.89 3657.7H133.179L132.197 3615.57H4833.89V3657.7ZM4727.99 3504.35H262.112V3462.23H4727.99V3504.35ZM4533.13 3359.56H481.616V3317.44H4533.13V3359.56ZM4533.13 1099.96L481.616 1105.69V1061.35L4533.13 1055.62V1099.96Z" fill="#BB00FD"/>
<path fill-rule="evenodd" clip-rule="evenodd" d="M4533.13 1088.8L3928.51 1173.71V3327.25H3359.97V1133.01C3254.19 1145.68 2993.69 1177.13 2750.76 1208.48V3327.25H2182.2V1103.29L1573 1173.71V3327.25H1004.45V1111.5L481.615 1173.71V1080.66C481.615 1080.66 866.157 1092.04 1004.45 1100.59V1088.15H1573V1080.66H2243.72L2223.35 1088.15H2750.76V1101.28L3359.97 1089.13V1088.15H3928.51V1080.66L4533.13 1088.1V1088.8Z" fill="#BD00FF"/>
<path d="M2521.65 906.744C2720.23 906.744 2881.21 750.097 2881.21 556.864C2881.21 363.63 2720.23 206.983 2521.65 206.983C2323.08 206.983 2162.1 363.63 2162.1 556.864C2162.1 750.097 2323.08 906.744 2521.65 906.744Z" fill="#FFCF84"/>
<path fill-rule="evenodd" clip-rule="evenodd" d="M2521.66 283.946C2676.44 283.946 2802.11 406.231 2802.11 556.852C2802.11 707.473 2676.44 829.759 2521.66 829.759C2515.37 829.759 2510.27 834.725 2510.27 840.843C2510.27 846.961 2515.37 851.928 2521.66 851.928C2689.01 851.928 2824.89 719.71 2824.89 556.852C2824.89 393.995 2689.01 261.777 2521.66 261.777C2515.37 261.777 2510.27 266.743 2510.27 272.861C2510.27 278.979 2515.37 283.946 2521.66 283.946Z" fill="#FD9909"/>
<path fill-rule="evenodd" clip-rule="evenodd" d="M2521.64 829.759C2366.85 829.759 2241.17 707.473 2241.17 556.852C2241.17 406.231 2366.85 283.946 2521.64 283.946C2527.93 283.946 2533.04 278.979 2533.04 272.861C2533.04 266.743 2527.93 261.777 2521.64 261.777C2354.27 261.777 2218.41 393.995 2218.41 556.852C2218.41 719.71 2354.27 851.928 2521.64 851.928C2527.93 851.928 2533.04 846.961 2533.04 840.843C2533.04 834.725 2527.93 829.759 2521.64 829.759Z" fill="#FD9909"/>
<path fill-rule="evenodd" clip-rule="evenodd" d="M2564.93 904.238L2557.57 846.595C2556.79 840.523 2561.24 834.983 2567.48 834.227C2573.72 833.473 2579.39 837.79 2580.19 843.862L2587.46 900.893C2580.03 902.234 2572.51 903.351 2564.93 904.238ZM2632.16 889.883L2611.79 831.394C2609.79 825.599 2612.98 819.3 2618.95 817.338C2624.89 815.374 2631.36 818.485 2633.37 824.277L2653.62 882.395C2646.58 885.104 2639.43 887.602 2632.16 889.883ZM2323.43 848.764L2355.1 798.091C2358.36 792.863 2365.38 791.201 2370.75 794.38C2376.13 797.559 2377.84 804.383 2374.58 809.61L2342.82 860.418C2336.21 856.727 2329.74 852.836 2323.43 848.764ZM2817.47 755.672L2765.14 717.988C2760.11 714.348 2759.04 707.402 2762.77 702.483C2766.51 697.566 2773.64 696.528 2778.7 700.166L2829.87 737.016C2825.95 743.37 2821.8 749.593 2817.47 755.672ZM2179.93 665.928L2241.42 638.999C2247.13 636.487 2253.9 638.979 2256.48 644.557C2259.05 650.137 2256.5 656.703 2250.76 659.215L2187.74 686.818C2184.92 679.961 2182.3 672.998 2179.93 665.928ZM2870.53 472.01C2872.36 479.153 2873.97 486.38 2875.34 493.685L2814.72 507.596C2808.61 509.002 2802.46 505.306 2801.02 499.354C2799.57 493.399 2803.37 487.424 2809.48 486.019L2870.53 472.01ZM2224.53 359.85L2278.71 394.333C2283.97 397.682 2285.45 404.557 2282.01 409.678C2278.57 414.797 2271.51 416.236 2266.25 412.886L2212.3 378.543C2216.17 372.176 2220.27 365.942 2224.53 359.85ZM2259.89 317.081L2303.95 348.61C2309.01 352.235 2310.11 359.181 2306.37 364.107C2302.66 369.035 2295.5 370.092 2290.44 366.468L2244.76 333.759C2249.62 328.046 2254.68 322.484 2259.89 317.081ZM2729.46 271.401C2735.66 275.684 2741.72 280.151 2747.62 284.804L2708.23 333.132C2704.31 337.925 2697.14 338.727 2692.21 334.925C2687.29 331.123 2686.47 324.144 2690.37 319.351L2729.46 271.401ZM2668.45 237.437C2675.4 240.472 2682.24 243.718 2688.93 247.152L2661.16 297.842C2658.2 303.241 2651.3 305.285 2645.74 302.407C2640.2 299.527 2638.11 292.808 2641.07 287.409L2668.45 237.437ZM2441.01 215.842L2457.05 271.487C2458.74 277.378 2455.21 283.501 2449.15 285.153C2443.09 286.806 2436.8 283.366 2435.11 277.473L2418.98 221.489C2426.23 219.387 2433.56 217.503 2441.01 215.842Z" fill="#FD9909"/>
<path d="M2429.14 574.564C2446.11 603.668 2469.58 626.783 2499.71 644.823C2535.87 665.578 2557.3 664.659 2565.16 642.746C2570.94 624.509 2562.41 606.465 2539.58 588.614C2528.77 580.658 2517.19 572.248 2504.55 562.814C2481.99 545.534 2466.28 526.957 2457.69 507.653C2448.82 487.779 2447.42 469.008 2453.09 451.115C2459.84 429.781 2473.05 417.113 2493.47 413.566C2513.12 409.565 2537.29 415.959 2565.7 432.177C2599.99 453.056 2627.11 479.128 2647.19 510.048L2614.22 527.06C2597.49 502.992 2576.69 483.069 2551.99 468.205C2539.2 460.718 2527.47 457.119 2517.09 457.977C2506.32 458.609 2498.83 464.833 2494.74 476.306C2492.45 483.532 2493.59 491.54 2497.94 501.02C2502.28 510.5 2511.16 520.184 2523.97 530.533C2531.01 535.876 2541.04 543.378 2553.78 552.468C2578.78 570.765 2595.16 590.14 2603.31 610.82C2611.19 630.929 2612.59 649.699 2607.03 667.249C2591.04 713.366 2550.96 718.051 2487.55 681.759C2446.84 657.938 2415.16 625.937 2392.78 586.328L2429.14 574.564Z" fill="#FD9909"/>
<path fill-rule="evenodd" clip-rule="evenodd" d="M2530.39 334.023L2460.42 764.574L2482.1 772.606L2552.06 342.054L2530.39 334.023Z" fill="#FD9909"/>
<path fill-rule="evenodd" clip-rule="evenodd" d="M2577.61 335.378L2507.64 765.93L2529.32 773.961L2599.29 343.409L2577.61 335.378Z" fill="#FD9909"/>
<path fill-rule="evenodd" clip-rule="evenodd" d="M1139.93 2238.73L1215.94 2668.83L824.963 2741.96L750.437 2305.24L1139.93 2238.73Z" fill="white"/>
<path fill-rule="evenodd" clip-rule="evenodd" d="M762.361 2314.36L802.146 2547.57C803.171 2553.6 798.991 2559.28 792.794 2560.26C786.61 2561.23 780.749 2557.13 779.711 2551.11L738.099 2307.11C737.078 2301.13 741.181 2295.48 747.303 2294.44L1136.66 2227.95C1139.65 2227.43 1142.72 2228.1 1145.2 2229.81C1147.68 2231.52 1149.36 2234.11 1149.88 2237L1187.21 2448.34C1188.27 2454.37 1184.11 2460.09 1177.94 2461.09C1171.75 2462.11 1165.88 2458.02 1164.8 2452.01L1129.41 2251.67L762.361 2314.36Z" fill="black"/>
<path fill-rule="evenodd" clip-rule="evenodd" d="M1204.09 2659.89L1167.29 2451.55C1166.23 2445.52 1170.38 2439.82 1176.56 2438.8C1182.74 2437.8 1188.63 2441.87 1189.7 2447.88L1228.38 2666.89C1229.43 2672.81 1225.43 2678.45 1219.37 2679.59L828.551 2752.71C825.528 2753.28 822.408 2752.63 819.883 2750.91C817.357 2749.2 815.649 2746.56 815.141 2743.62L782.228 2550.66C781.203 2544.63 785.396 2538.93 791.578 2537.96C797.776 2536.98 803.634 2541.08 804.661 2547.12L835.656 2728.82L1204.09 2659.89Z" fill="black"/>
<path fill-rule="evenodd" clip-rule="evenodd" d="M1172.51 2639.63L1167.46 2611.82L852.976 2664.7L858.029 2692.52L1172.51 2639.63ZM1161.18 2575.69L1156.12 2547.9L841.631 2600.78L846.698 2628.58L1161.18 2575.69ZM1149.83 2511.77L1144.77 2483.95L830.302 2536.84L835.356 2564.66L1149.83 2511.77ZM1138.5 2447.86L1133.44 2420.04L818.959 2472.93L824.013 2500.75L1138.5 2447.86ZM1127.15 2383.94L1122.1 2356.12L807.617 2409.01L812.67 2436.83L1127.15 2383.94ZM1115.81 2320.02L1110.76 2292.2L796.272 2345.09L801.34 2372.89L1115.81 2320.02Z" fill="black"/>
<path fill-rule="evenodd" clip-rule="evenodd" d="M1316.36 2349.69L1336.94 2722.03L1003.88 2647.44L985.207 2270.28L1316.36 2349.69Z" fill="white"/>
<path fill-rule="evenodd" clip-rule="evenodd" d="M1398.84 2712.55L1391.44 2578.44C1391.2 2574.27 1394.44 2571.72 1398.63 2572.76C1402.84 2573.79 1406.44 2578.02 1406.66 2582.2L1414.47 2723.7C1414.69 2727.81 1411.57 2730.35 1407.45 2729.42L1074.56 2654.84C1072.5 2654.38 1070.47 2653.11 1068.93 2651.31C1067.38 2649.52 1066.45 2647.35 1066.35 2645.31L1058.44 2485.35C1058.24 2481.17 1061.48 2478.66 1065.69 2479.72C1069.89 2480.78 1073.47 2485.02 1073.67 2489.2L1081.19 2641.39L1398.84 2712.55Z" fill="black"/>
<path fill-rule="evenodd" clip-rule="evenodd" d="M945.023 2278.37L955.533 2486.68C955.749 2490.8 952.479 2493.3 948.26 2492.24C944.027 2491.18 940.435 2486.96 940.219 2482.83L929.339 2267.14C929.129 2263.04 932.337 2260.55 936.522 2261.55L1269.35 2340.93C1271.39 2341.42 1273.4 2342.68 1274.92 2344.45C1276.46 2346.21 1277.37 2348.33 1277.49 2350.32L1290.39 2579.55C1290.61 2583.69 1287.38 2586.2 1283.15 2585.17C1278.93 2584.13 1275.31 2579.93 1275.08 2575.79L1262.6 2354.12L945.023 2278.37Z" fill="black"/>
<path fill-rule="evenodd" clip-rule="evenodd" d="M1333.35 2653.65L1327.39 2629.84L1060.57 2617.55L1066.54 2641.37L1333.35 2653.65ZM1319.88 2598.96L1313.91 2575.16L1047.09 2562.86L1053.07 2586.67L1319.88 2598.96ZM1306.39 2544.27L1300.42 2520.45L1033.62 2508.17L1039.59 2531.99L1306.39 2544.27ZM1292.92 2489.59L1286.95 2465.77L1020.14 2453.48L1026.1 2477.3L1292.92 2489.59ZM1279.43 2434.91L1273.47 2411.09L1006.66 2398.8L1012.62 2422.62L1279.43 2434.91ZM1265.95 2380.22L1259.99 2356.4L993.172 2344.11L999.151 2367.92L1265.95 2380.22Z" fill="black"/>
<path d="M821.702 3819.5C988.069 3819.5 1122.94 3684.74 1122.94 3518.51C1122.94 3352.28 988.069 3217.53 821.702 3217.53C655.336 3217.53 520.469 3352.28 520.469 3518.51C520.469 3684.74 655.336 3819.5 821.702 3819.5Z" fill="#FFCF84"/>
<path fill-rule="evenodd" clip-rule="evenodd" d="M821.706 3283.74C951.379 3283.74 1056.67 3388.93 1056.67 3518.5C1056.67 3648.08 951.379 3753.27 821.706 3753.27C816.438 3753.27 812.162 3757.54 812.162 3762.81C812.162 3768.07 816.438 3772.34 821.706 3772.34C961.914 3772.34 1075.75 3658.6 1075.75 3518.5C1075.75 3378.41 961.914 3264.67 821.706 3264.67C816.438 3264.67 812.162 3268.94 812.162 3274.2C812.162 3279.46 816.438 3283.74 821.706 3283.74Z" fill="#FD9909"/>
<path fill-rule="evenodd" clip-rule="evenodd" d="M821.698 3753.27C692.009 3753.27 586.722 3648.08 586.722 3518.5C586.722 3388.93 692.009 3283.74 821.698 3283.74C826.965 3283.74 831.241 3279.46 831.241 3274.2C831.241 3268.94 826.965 3264.67 821.698 3264.67C681.474 3264.67 567.65 3378.41 567.65 3518.5C567.65 3658.6 681.474 3772.34 821.698 3772.34C826.965 3772.34 831.241 3768.07 831.241 3762.81C831.241 3757.54 826.965 3753.27 821.698 3753.27Z" fill="#FD9909"/>
<path fill-rule="evenodd" clip-rule="evenodd" d="M857.956 3817.34L851.791 3767.75C851.142 3762.53 854.864 3757.76 860.094 3757.11C865.324 3756.47 870.077 3760.18 870.745 3765.4L876.834 3814.46C870.611 3815.62 864.312 3816.58 857.956 3817.34ZM914.282 3804.99L897.218 3754.68C895.539 3749.69 898.211 3744.27 903.212 3742.59C908.194 3740.9 913.614 3743.57 915.294 3748.55L932.263 3798.55C926.365 3800.88 920.371 3803.03 914.282 3804.99ZM655.634 3769.62L682.165 3726.03C684.894 3721.53 690.773 3720.1 695.278 3722.84C699.782 3725.57 701.213 3731.44 698.484 3735.94L671.877 3779.64C666.342 3776.47 660.921 3773.12 655.634 3769.62ZM1069.54 3689.54L1025.69 3657.12C1021.48 3653.99 1020.58 3648.01 1023.71 3643.78C1026.84 3639.55 1032.81 3638.66 1037.05 3641.79L1079.92 3673.49C1076.64 3678.95 1073.16 3684.31 1069.54 3689.54ZM535.404 3612.34L586.92 3589.17C591.711 3587.01 597.38 3589.15 599.537 3593.95C601.694 3598.75 599.556 3604.4 594.746 3606.56L541.951 3630.31C539.584 3624.41 537.389 3618.42 535.404 3612.34ZM1113.99 3445.52C1115.52 3451.66 1116.87 3457.88 1118.02 3464.16L1067.23 3476.13C1062.11 3477.34 1056.96 3474.16 1055.76 3469.04C1054.53 3463.92 1057.72 3458.78 1062.84 3457.57L1113.99 3445.52ZM572.777 3349.03L618.166 3378.7C622.575 3381.58 623.815 3387.49 620.933 3391.9C618.051 3396.3 612.134 3397.54 607.725 3394.66L562.527 3365.11C565.772 3359.64 569.207 3354.27 572.777 3349.03ZM602.4 3312.24L639.314 3339.36C643.551 3342.48 644.468 3348.46 641.337 3352.69C638.226 3356.93 632.233 3357.84 627.996 3354.73L589.726 3326.59C593.792 3321.67 598.029 3316.89 602.4 3312.24ZM995.803 3272.94C1000.99 3276.63 1006.07 3280.47 1011.02 3284.48L978.014 3326.05C974.731 3330.17 968.719 3330.86 964.596 3327.59C960.473 3324.32 959.786 3318.32 963.05 3314.19L995.803 3272.94ZM944.688 3243.73C950.51 3246.34 956.236 3249.13 961.847 3252.08L938.58 3295.69C936.099 3300.33 930.315 3302.09 925.658 3299.62C921.02 3297.14 919.264 3291.36 921.746 3286.72L944.688 3243.73ZM754.142 3225.15L767.579 3273.02C768.992 3278.09 766.033 3283.35 760.956 3284.77C755.879 3286.2 750.611 3283.24 749.198 3278.17L735.685 3230.01C741.755 3228.2 747.9 3226.58 754.142 3225.15Z" fill="#FD9909"/>
<path d="M1966.07 3742.85C2061.45 3826.03 2226.65 3801.25 2335.06 3687.51C2443.47 3573.77 2454.04 3414.14 2358.66 3330.96C2263.28 3247.79 2098.07 3272.56 1989.66 3386.3C1881.25 3500.04 1870.69 3659.68 1966.07 3742.85Z" fill="#FFCF84"/>
<path fill-rule="evenodd" clip-rule="evenodd" d="M2295.39 3478.96C2378.82 3534.09 2365.48 3632.81 2265.6 3699.28C2165.72 3765.76 2016.89 3774.97 1933.45 3719.84C1930.06 3717.61 1924.01 3717.98 1919.96 3720.68C1915.9 3723.38 1915.36 3727.39 1918.75 3729.63C2008.96 3789.23 2169.89 3779.27 2277.89 3707.4C2385.88 3635.52 2400.3 3528.78 2310.09 3469.18C2306.7 3466.94 2300.65 3467.31 2296.59 3470.01C2292.54 3472.71 2292 3476.72 2295.39 3478.96Z" fill="#FD9909"/>
<path fill-rule="evenodd" clip-rule="evenodd" d="M2029.35 3594.87C1945.9 3539.74 1959.24 3441.02 2059.12 3374.54C2159 3308.07 2307.84 3298.86 2391.29 3353.99C2394.68 3356.23 2400.72 3355.86 2404.78 3353.16C2408.83 3350.46 2409.38 3346.45 2405.99 3344.21C2315.76 3284.6 2154.84 3294.56 2046.85 3366.44C1938.85 3438.31 1924.42 3545.05 2014.65 3604.66C2018.04 3606.9 2024.08 3606.52 2028.14 3603.82C2032.19 3601.12 2032.74 3597.11 2029.35 3594.87Z" fill="#FD9909"/>
<path fill-rule="evenodd" clip-rule="evenodd" d="M1954.03 3735.56L1988.24 3702.64C1991.85 3699.18 1997.21 3698.55 2000.2 3701.24C2003.2 3703.93 2002.7 3708.91 1999.1 3712.39L1965.25 3744.95C1961.4 3741.97 1957.66 3738.84 1954.03 3735.56ZM1990.32 3761.35L2019.85 3721.61C2022.78 3717.68 2028.12 3716.04 2031.79 3717.99C2035.44 3719.91 2036.04 3724.68 2033.11 3728.61L2003.78 3768.11C1999.2 3766.02 1994.71 3763.77 1990.32 3761.35ZM1892.71 3588.51L1938.12 3578.34C1942.8 3577.29 1946.69 3579.9 1946.8 3584.16C1946.92 3588.42 1943.2 3592.73 1938.52 3593.79L1892.99 3603.97C1892.72 3598.84 1892.62 3593.68 1892.71 3588.51ZM2151.37 3784.36L2154.62 3739.46C2154.95 3735.13 2159 3731.07 2163.67 3730.41C2168.34 3729.75 2171.88 3732.73 2171.57 3737.07L2168.38 3780.98C2162.71 3782.28 2157.03 3783.4 2151.37 3784.36ZM1952.91 3424.97L1995 3441.55C1998.92 3443.08 2000.03 3447.68 1997.47 3451.78C1994.9 3455.88 1989.64 3457.97 1985.72 3456.42L1942.58 3439.43C1945.87 3434.55 1949.3 3429.72 1952.91 3424.97ZM2355.61 3666.33C2351.73 3670.86 2347.72 3675.33 2343.56 3679.71L2310.22 3656.94C2306.86 3654.65 2306.77 3649.75 2310.03 3646.01C2313.28 3642.27 2318.67 3641.11 2322.03 3643.4L2355.61 3666.33ZM2168.21 3291.39L2167.75 3335.57C2167.71 3339.87 2163.87 3344.09 2159.19 3345C2154.5 3345.9 2150.74 3343.16 2150.78 3338.87L2151.24 3294.86C2156.9 3293.53 2162.57 3292.38 2168.21 3291.39ZM2210 3287.05L2207.39 3324.76C2207.08 3329.09 2203.04 3333.16 2198.36 3333.83C2193.69 3334.5 2190.14 3331.52 2190.44 3327.19L2193.16 3288.08C2198.8 3287.57 2204.42 3287.23 2210 3287.05ZM2428.25 3494.96C2427.97 3500.18 2427.53 3505.44 2426.9 3510.71L2379.9 3515.88C2375.24 3516.38 2371.84 3513.26 2372.31 3508.9C2372.78 3504.55 2376.95 3500.6 2381.61 3500.08L2428.25 3494.96ZM2425.62 3447.67C2426.45 3452.63 2427.11 3457.65 2427.59 3462.69L2383.74 3474.78C2379.06 3476.06 2374.97 3473.7 2374.59 3469.51C2374.22 3465.32 2377.71 3460.87 2382.38 3459.59L2425.62 3447.67ZM2348.1 3324.75L2318.67 3360.93C2315.55 3364.75 2310.18 3366.12 2306.68 3363.98C2303.18 3361.84 2302.87 3356.99 2305.99 3353.17L2335.6 3316.78C2339.87 3319.28 2344.03 3321.93 2348.1 3324.75Z" fill="#FD9909"/>
<path fill-rule="evenodd" clip-rule="evenodd" d="M1478.41 1337.21C1477.61 1336.01 1446.61 1337.11 1444.2 1336.96C1407.89 1334.77 1371.64 1331.31 1335.5 1327.28C1215.41 1313.87 1072.11 1304.64 973.011 1230.12C860.278 1145.36 955.259 1020.84 1078.73 1043.88C1230.96 1072.28 1346.27 1219.03 1477.04 1292.21" fill="black"/>
<path d="M1602.46 1480.83C1684.18 1480.83 1750.43 1416.36 1750.43 1336.83C1750.43 1257.31 1684.18 1192.84 1602.46 1192.84C1520.73 1192.84 1454.48 1257.31 1454.48 1336.83C1454.48 1416.36 1520.73 1480.83 1602.46 1480.83Z" fill="#ABD1CE"/>
<path fill-rule="evenodd" clip-rule="evenodd" d="M1537.95 1392.17L1489.6 1429.93C1467.7 1404.82 1454.48 1372.32 1454.48 1336.83C1454.48 1257.36 1520.78 1192.84 1602.46 1192.84C1678.08 1192.84 1740.53 1248.16 1749.37 1319.46C1724.63 1316.64 1704.08 1301.77 1687.49 1275.41C1686.1 1329.13 1637.52 1349.64 1578.93 1360.17C1576.48 1346.5 1563.95 1336.07 1548.88 1336.07C1532.05 1336.07 1518.38 1349.07 1518.38 1365.08C1518.38 1377.43 1526.51 1387.99 1537.95 1392.17Z" fill="black"/>
<path fill-rule="evenodd" clip-rule="evenodd" d="M2512.58 2141.78C2512.58 2141.78 3145.61 1491.78 3532.94 1517.82C3595 1521.99 3771.81 1545.4 3942.64 1666.65C4065.89 1754.12 4171.24 1854.9 4273.46 1957.66C4323.47 2007.97 4345.78 2078.51 4333.43 2147.46C4321.1 2216.43 4275.63 2275.49 4211.06 2306.39C4118.09 2350.97 3998.43 2393.56 3851.58 2417.53C3851.58 2417.53 3877.71 2463.48 3893.93 2492.02C3902.4 2506.94 3902.29 2525.05 3893.63 2539.86C3880.26 2562.05 3855.13 2595.84 3811.55 2629.38C3811.55 2629.38 3809.06 2645.16 3806.69 2660.19C3805.58 2667.26 3801.61 2673.61 3795.67 2677.82C3789.72 2682.05 3782.32 2683.78 3775.05 2682.65C3763.95 2680.94 3755.5 2672.08 3754.55 2661.19C3754 2654.58 3754.32 2647.6 3755.5 2642.01C3755.5 2642.01 3783.66 2453.31 3630.54 2297.12C3630.54 2297.12 3588.42 2232.86 3652.84 2191.6L3893.66 2050.51L3743.2 1927.38C3743.2 1927.38 3710.96 2081.55 3527.65 2115.33C3448.71 2129.9 3299.76 2134.45 3207.81 1998.15C3207.81 1998.15 2729.54 2367.98 2603.8 2514.21C2603.8 2514.21 2584.66 2532.03 2567.98 2520.48C2558.64 2514.01 2546.3 2500.57 2560.01 2480.22C2560.01 2480.22 2537.5 2500 2517.68 2486.81C2504.47 2478 2494.28 2460.76 2507.88 2440.49C2507.88 2440.49 2484.87 2460.98 2464.1 2446.5C2450.11 2436.73 2446.87 2419.5 2453.75 2399.86C2453.75 2399.86 2429.42 2423.36 2408.71 2409.72C2394.22 2400.19 2387.23 2380.37 2397.12 2365.96L2489.02 2237.58L2512.58 2141.78Z" fill="#E9673C"/>
<path fill-rule="evenodd" clip-rule="evenodd" d="M3804.75 2666.81C3804.68 2666.06 3804.75 2665.31 3804.88 2664.53C3827.62 2551.95 3807.16 2432.88 3807.16 2432.88C3806.34 2428.05 3809.69 2423.48 3814.66 2422.66C3819.6 2421.86 3824.32 2425.12 3825.14 2429.96C3825.14 2429.96 3830.44 2460.95 3832.75 2506.51L3863.91 2514.98C3868.74 2516.31 3871.59 2521.18 3870.22 2525.91C3868.88 2530.63 3863.84 2533.38 3858.99 2532.05L3833.5 2525.11C3834.23 2551.82 3833.77 2582.22 3830.74 2613.63C3824.77 2618.86 3818.39 2624.12 3811.56 2629.37C3811.56 2629.37 3809.07 2645.15 3806.71 2660.19C3806.34 2662.49 3805.68 2664.71 3804.75 2666.81Z" fill="#D9512E"/>
<path fill-rule="evenodd" clip-rule="evenodd" d="M2774.04 1903.06C2993.02 1720.56 3305.4 1502.52 3532.95 1517.82C3595.01 1521.99 3771.82 1545.4 3942.65 1666.65C4065.9 1754.12 4171.25 1854.9 4273.47 1957.66C4323.48 2007.97 4345.78 2078.51 4333.44 2147.46C4321.11 2216.43 4275.64 2275.49 4211.07 2306.39C4165.21 2328.38 4112.88 2349.89 4053.96 2368.91L3838.58 2082.79L3893.66 2050.51L3743.21 1927.38C3743.21 1927.38 3710.97 2081.55 3527.66 2115.34C3448.72 2129.9 3299.77 2134.45 3207.82 1998.15C3207.82 1998.15 3113.95 2070.71 2998.45 2164.31L2774.04 1903.06Z" fill="#D84B26"/>
<path fill-rule="evenodd" clip-rule="evenodd" d="M2530.08 2491.23L2556.69 2455.14C2559.61 2451.15 2565.33 2450.24 2569.41 2453.1C2573.48 2455.96 2574.42 2461.51 2571.5 2465.47C2571.5 2465.47 2558.95 2481.75 2560 2480.22C2560 2480.22 2545.83 2492.68 2530.08 2491.23ZM2477.27 2451.51L2504.7 2414.33C2507.62 2410.36 2513.34 2409.45 2517.42 2412.29C2521.49 2415.15 2522.43 2420.69 2519.51 2424.68L2507.8 2440.56C2506.73 2441.49 2492.9 2453.19 2477.27 2451.51ZM2420.89 2413.91L2451.12 2372.89C2454.06 2368.93 2459.75 2367.99 2463.83 2370.85C2467.93 2373.71 2468.87 2379.26 2465.93 2383.23L2453.56 2400.03C2451.73 2401.71 2436.81 2415.08 2420.89 2413.91Z" fill="#D9512E"/>
<path d="M3503.05 1478.88C3578.28 1478.88 3639.26 1419.53 3639.26 1346.33C3639.26 1273.13 3578.28 1213.78 3503.05 1213.78C3427.82 1213.78 3366.84 1273.13 3366.84 1346.33C3366.84 1419.53 3427.82 1478.88 3503.05 1478.88Z" fill="#E9673C"/>
<path fill-rule="evenodd" clip-rule="evenodd" d="M3435.43 1231.27C3455.34 1220.15 3478.44 1213.78 3503.05 1213.78C3578.23 1213.78 3639.26 1273.18 3639.26 1346.33C3639.26 1395.42 3611.77 1438.32 3570.96 1461.22L3527.56 1387.57C3536.47 1390.24 3546.77 1389.35 3555.88 1384.3C3572.62 1375.03 3579 1355.19 3570.14 1340.03C3561.28 1324.87 3540.48 1320.09 3523.73 1329.37C3514.57 1334.45 3508.49 1342.69 3506.35 1351.6L3435.43 1231.27Z" fill="black"/>
<path fill-rule="evenodd" clip-rule="evenodd" d="M3890.95 2048.33L3891.45 2048.04C3891.45 2048.04 3938.95 2087.34 3966.88 2110.44C3968.53 2111.8 3968.91 2114.08 3967.82 2115.88C3966.73 2117.67 3964.45 2118.45 3962.46 2117.67L3850.9 2075.55L3893.64 2050.52L3890.95 2048.33ZM3194.56 2008.44L3301.95 1919.61C3304.76 1917.28 3308.86 1917.14 3311.84 1919.27C3314.8 1921.41 3315.9 1925.25 3314.44 1928.56L3258.76 2055.89C3240.53 2040.23 3223.35 2021.21 3207.79 1998.16C3207.79 1998.16 3203.1 2001.77 3194.56 2008.44ZM3743.46 1927.6C3752.11 1893.11 3761.07 1836.8 3757.67 1767C3757.51 1764 3759.56 1761.31 3762.55 1760.56C3765.53 1759.81 3768.65 1761.2 3770.02 1763.89C3789.43 1802.64 3819.87 1882.09 3805.72 1978.58L3743.46 1927.6Z" fill="#76200A"/>
<path fill-rule="evenodd" clip-rule="evenodd" d="M2764.36 3816.89C2764.36 3816.89 2797.24 3748.14 2864.49 3736.02C2905.2 3310.03 2984.51 2894.49 3119.66 2467.93C3173.15 2299.37 3347.71 2196.39 3526.03 2228.18C3577.5 2237.34 3626.02 2257.4 3664.14 2294.38C3681.04 2310.81 3802.47 2455.69 3756.63 2682.02C3742.1 2753.71 3712.44 2838.07 3691.82 2893.98C3691.82 2893.98 4051.1 3312.05 4098.83 3367.6C4101.95 3371.22 4102.36 3376.38 4099.88 3380.46C4065.57 3436.4 3830.86 3819.13 3830.86 3819.13C3830.86 3819.13 3789.65 3780.47 3805.05 3700.5L3504.89 3380.17C3504.89 3380.17 3352.38 3738.43 3324.88 3802.99C3322.33 3809 3316.34 3812.92 3309.66 3812.97C3231.54 3813.54 2764.36 3816.89 2764.36 3816.89Z" fill="url(#paint0_linear_299_32)"/>
<path fill-rule="evenodd" clip-rule="evenodd" d="M2868.11 3699.08L3362.58 3714.42L3355.13 3731.94L2866.36 3716.77C2866.93 3710.88 2867.52 3704.96 2868.11 3699.08ZM4029.82 3287.31L3796.41 3691.3L3783.49 3677.51L4017.31 3272.74L4029.82 3287.31ZM3696.8 2880.37C3695.09 2885.04 3693.43 2889.59 3691.81 2893.98L3708.4 2913.26L3520.94 3397.29L3504.88 3380.15L3486.54 3423.25L3696.8 2880.37ZM3601.25 2251.4C3608.11 2254.61 3614.83 2258.14 3621.37 2261.97C3623.83 2272.35 3629.05 2284.07 3638.96 2296.16C3654.77 2315.4 3774.88 2408.82 3754.19 2638.83C3752.96 2652.53 3754.74 2663.3 3758.63 2671.51C3758 2674.97 3757.34 2678.49 3756.61 2682.02C3755.74 2686.36 3754.81 2690.75 3753.8 2695.18C3752.48 2693.9 3751.18 2692.57 3749.95 2691.1C3740.11 2679.62 3733.78 2662.26 3736.03 2637.28C3755.97 2415.67 3639.96 2325.77 3624.74 2307.24C3607.97 2286.85 3602.28 2267.18 3601.25 2251.4Z" fill="#D9512E"/>
<path fill-rule="evenodd" clip-rule="evenodd" d="M1869.21 2850.56C1765.62 3268.43 1497.37 3742.35 1497.37 3742.35C1547.18 3737.62 1602.48 3819.69 1602.48 3819.69C1602.48 3819.69 1099.56 3819.69 954.518 3819.69C945.952 3819.69 937.96 3815.5 933.246 3808.54C928.532 3801.58 927.73 3792.78 931.109 3785.13C1111.19 3372.34 1246.92 2849.23 1264.33 2769.48C1384 2221.43 1591.31 2216.2 1680.8 2233.25C1706.22 2238.08 1729.21 2245.18 1749.8 2254.31C1964.12 2299.23 2294.47 2444.39 2475.45 2576.43C2532.25 2618.18 2559.36 2687.97 2545.1 2755.83C2514.14 2904.14 2450.14 3040.88 2375.6 3191.92C2449.25 3229.43 2467.98 3275.81 2467.98 3275.81C2467.98 3275.81 2087.53 3246.97 1997.18 3240.14C1992.39 3239.77 1988 3237.39 1985.15 3233.62C1982.3 3229.88 1981.28 3225.09 1982.35 3220.52C1998.13 3152.84 2052.68 2919.13 2052.68 2919.13C1987.18 2902.06 1925.16 2880.38 1869.21 2850.56Z" fill="url(#paint1_linear_299_32)"/>
<path fill-rule="evenodd" clip-rule="evenodd" d="M1006.89 3599.06L1557.42 3630C1553.55 3637.54 1549.81 3644.72 1546.23 3651.6L998.523 3620.8C1001.32 3613.58 1004.11 3606.33 1006.89 3599.06ZM2405.92 3129.88L2003.92 3128.02L2009.09 3105.87L2416.51 3107.76C2413.03 3115.1 2409.49 3122.48 2405.92 3129.88ZM1667.76 2231.09C1672.33 2231.71 1676.69 2232.44 1680.8 2233.24C1706.22 2238.07 1729.21 2245.17 1749.8 2254.3C1758.6 2256.14 1767.57 2258.16 1776.73 2260.33C1798.31 2276.76 1820.82 2298.33 1841.53 2326.57C1908.03 2417.31 1956.51 2578.15 1888.85 2860.55C1882.22 2857.31 1875.68 2853.99 1869.21 2850.55C1864.63 2869.02 1859.73 2887.59 1854.56 2906.19C1854.33 2904.73 1854.4 2903.2 1854.81 2901.69C1936.94 2600.06 1890.83 2432.01 1822.98 2339.46C1756.96 2249.36 1671.2 2232.33 1671.2 2232.33C1669.96 2232.09 1668.8 2231.67 1667.76 2231.09Z" fill="#8ABBB8"/>
<path fill-rule="evenodd" clip-rule="evenodd" d="M2027.43 2912.25V2912.14C2027.43 2912.14 2099.81 2932.73 2171.76 2941.6C2175.58 2941.96 2178.61 2944.97 2178.89 2948.72C2179.18 2952.47 2176.68 2955.88 2172.92 2956.79C2127.83 2967.96 2062.24 2984.19 2035.97 2990.69L2052.67 2919.12C2044.2 2916.91 2035.79 2914.62 2027.43 2912.25Z" fill="#8ABBB8"/>
<path fill-rule="evenodd" clip-rule="evenodd" d="M1299.94 2335.55C1299.94 2335.55 1308.05 2355.65 1321.82 2368.33C1329.61 2375.52 1344.98 2378.73 1358.73 2369.78C1384.76 2352.82 1404.05 2310.36 1399.7 2264.45C1398.57 2252.57 1365.07 2156.13 1278.42 2103.48L1358.73 2058.67C1358.73 2058.67 1541.14 2260.64 1797.92 2086.98C1797.92 2086.98 2033.43 2264.49 2384.12 2390.17L2493.88 2238.2C2493.88 2238.2 2629.37 2213.15 2654.23 2175.06C2657.99 2169.32 2662.36 2154.07 2633.63 2151.87C2620.65 2150.87 2520.95 2137.86 2344.54 2044.37C2296.15 2018.7 2136.74 1939.96 1924.23 1734.62C1879.53 1691.42 1595.71 1413.34 1158.23 1734.62C1081.46 1791 778.862 2019.23 639.432 2234.61C581.61 2324.17 592.382 2440.27 665.751 2518.31C665.742 2518.31 665.742 2518.31 665.742 2518.31C732.861 2589.7 842.448 2605.04 927.511 2554.93C1080.92 2464.57 1299.94 2335.55 1299.94 2335.55Z" fill="#ABD1CE"/>
<path fill-rule="evenodd" clip-rule="evenodd" d="M1297.61 2336.91L1332.68 2314.12C1338.01 2310.88 1345.05 2312.46 1348.38 2317.64C1351.72 2322.83 1350.1 2329.66 1344.77 2332.92L1309.98 2354.11C1303.53 2344.43 1299.94 2335.54 1299.94 2335.54L1297.61 2336.91ZM2493 2239.39L2492.25 2240.45C2491.34 2240.61 2490.86 2240.72 2490.86 2240.72L2473.7 2264.46C2454.36 2267.05 2438.25 2269.09 2438.25 2269.09C2432.01 2269.87 2426.29 2265.57 2425.49 2259.49C2424.7 2253.44 2429.12 2247.88 2435.34 2247.1C2435.34 2247.1 2465.77 2243.29 2493 2239.39Z" fill="#8ABBB8"/>
<path fill-rule="evenodd" clip-rule="evenodd" d="M1220.42 2382.04L927.528 2554.8C842.481 2604.97 732.855 2589.67 665.722 2518.27C665.722 2518.27 665.72 2518.27 665.731 2518.27C592.39 2440.25 581.618 2324.2 639.41 2234.68C778.821 2019.3 1081.47 1791 1158.25 1734.62C1595.73 1413.34 1879.55 1691.42 1924.25 1734.62C2136.77 1939.96 2296.18 2018.7 2344.57 2044.37C2369.4 2057.52 2392.68 2069.09 2414.44 2079.25L2242 2334.13C1971.27 2217.65 1797.94 2086.98 1797.94 2086.98C1541.16 2260.64 1358.75 2058.67 1358.75 2058.67L1278.25 2103.92C1181.61 2035.53 1058.36 2116.56 1058.36 2116.56L1220.42 2382.04Z" fill="#86B8B5"/>
<path fill-rule="evenodd" clip-rule="evenodd" d="M1060.33 2115.33C1059.05 2116.12 1058.38 2116.54 1058.38 2116.54L1069.95 2135.5C972.13 2189.46 874.051 2247.52 775.275 2307.11C769.933 2310.33 762.904 2308.73 759.592 2303.52C756.279 2298.33 757.929 2291.48 763.271 2288.27C862.847 2228.19 961.719 2169.68 1060.33 2115.33ZM1792.72 2090.47C1810.68 2073.74 1873.56 2007.36 1893.79 1882.79C1894.22 1880.11 1896.54 1878.1 1899.32 1878C1902.12 1877.9 1904.59 1879.74 1905.22 1882.38C1910.9 1914.28 1915.7 1968.94 1901.1 2035.58C1894.36 2066.26 1883.51 2099.52 1866.74 2134.24C1822.23 2105.26 1797.96 2086.97 1797.96 2086.97C1796.23 2088.15 1794.48 2089.32 1792.72 2090.47ZM1297.39 2093.16C1276.88 2046.51 1279.15 2004.37 1283.87 1979.05C1284.62 1975.15 1287.82 1972.11 1291.86 1971.49C1295.91 1970.85 1299.92 1972.78 1301.88 1976.28C1324.6 2018.02 1346.38 2045.14 1358.57 2058.77L1297.39 2093.16Z" fill="#1F5753"/>
<path fill-rule="evenodd" clip-rule="evenodd" d="M2719.69 2303.02C2710.09 2291.78 2708.91 2275.31 2717.86 2262.72C2728.62 2247.56 2750.01 2243.74 2765.59 2254.23L2818.36 2289.7C2833.92 2300.16 2837.84 2320.98 2827.06 2336.15C2817.26 2349.96 2798.63 2354.32 2783.61 2347.07C2791.95 2358.05 2792.64 2373.39 2784.23 2385.23C2774.61 2398.8 2756.37 2403.12 2741.63 2396.05C2749.85 2406.82 2750.56 2421.94 2742.26 2433.6C2732.83 2446.9 2714.95 2451.16 2700.46 2444.27C2708.59 2454.88 2709.27 2469.78 2701.14 2481.24C2690.91 2495.65 2670.59 2499.27 2655.78 2489.31L2613.52 2460.89C2598.73 2450.94 2595 2431.16 2605.23 2416.78C2614 2404.45 2630.15 2400.02 2643.91 2405.25C2634.62 2394.41 2633.48 2378.44 2642.11 2366.27C2651.02 2353.73 2667.47 2349.23 2681.46 2354.57C2672.03 2343.53 2670.86 2327.3 2679.66 2314.93C2688.72 2302.16 2705.45 2297.59 2719.69 2303.02Z" fill="#ABD1CE"/>
<path fill-rule="evenodd" clip-rule="evenodd" d="M2636.75 2378.87L2729.68 2444.21C2720.66 2448.53 2709.84 2448.75 2700.45 2444.27C2701.07 2445.07 2643.4 2405.08 2643.9 2405.25C2637.59 2397.89 2635.04 2388.16 2636.75 2378.87ZM2674.02 2328.81C2674.2 2328.92 2674.36 2329.03 2674.52 2329.15L2769.46 2395.88C2769.75 2396.08 2770.03 2396.3 2770.28 2396.54C2761.33 2400.44 2750.78 2400.44 2741.62 2396.05C2742.58 2397.32 2680.31 2354.13 2681.45 2354.57C2675.3 2347.37 2672.66 2337.95 2674.02 2328.81ZM2712.23 2276.29C2712.64 2276.49 2713.03 2276.74 2713.41 2277L2808.35 2343.73C2809.97 2344.86 2811.08 2346.42 2811.65 2348.12C2802.77 2351.6 2792.54 2351.4 2783.61 2347.08C2784.15 2347.81 2719.41 2302.92 2719.68 2303.03C2713.3 2295.54 2710.63 2285.74 2712.23 2276.29Z" fill="#8ABBB8"/>
<path fill-rule="evenodd" clip-rule="evenodd" d="M3748.5 3395.35C3748.5 3381.25 3736.77 3369.84 3722.3 3369.84C3611.71 3369.84 3183.88 3369.84 3073.32 3369.84C3058.85 3369.84 3047.12 3381.25 3047.12 3395.35C3047.12 3492.65 3047.12 3835.19 3047.12 3835.19H3748.5V3395.35Z" fill="black"/>
<path fill-rule="evenodd" clip-rule="evenodd" d="M3267.44 3369.83V3308.42C3267.44 3296.85 3277.1 3287.47 3288.99 3287.47H3506.66C3518.55 3287.47 3528.19 3296.85 3528.19 3308.42V3369.83H3485.13V3329.37H3310.52V3369.83H3267.44Z" fill="black"/>
<path fill-rule="evenodd" clip-rule="evenodd" d="M3742.05 3378.61C3746.06 3383.08 3748.5 3388.94 3748.5 3395.34V3401.26L3426.83 3619.83C3409.41 3631.67 3386.21 3631.69 3368.76 3619.87L3047.12 3401.99V3395.34C3047.12 3389.16 3049.37 3383.48 3053.13 3379.07L3381.79 3601.67C3391.41 3608.19 3404.19 3608.17 3413.78 3601.65L3742.05 3378.61Z" fill="white"/>
<defs>
<linearGradient id="paint0_linear_299_32" x1="3434.19" y1="3020.39" x2="2646.25" y2="1130.8" gradientUnits="userSpaceOnUse">
<stop stop-color="#E9673C"/>
<stop offset="1" stop-color="#FFBDB4"/>
</linearGradient>
<linearGradient id="paint1_linear_299_32" x1="1872.06" y1="3382.56" x2="3073" y2="2430.33" gradientUnits="userSpaceOnUse">
<stop stop-color="#ABD1CE"/>
<stop offset="0.52" stop-color="#BFDCD9"/>
<stop offset="1" stop-color="white"/>
</linearGradient>
</defs>
</svg>
