<svg width="709" height="685" viewBox="0 0 709 685" fill="none" xmlns="http://www.w3.org/2000/svg">
<path d="M683.262 255.797C685.986 208.09 662.447 160.666 626.335 127.977C597.888 102.175 560.456 85.2493 523.912 73.4461C408.399 36.1048 379.227 182.501 280.612 205.026C248.721 212.31 215.493 212.597 182.789 215.617C100.237 223.353 39.2495 274.691 40.8048 360.052C42.1302 433.73 85.4033 509.634 143.138 556.191C214.319 613.457 307.408 639.124 399.09 646.458C462.417 651.608 532.851 646.087 577.533 602.512C605.437 575.406 618.819 537.519 630.073 500.653C642.785 458.95 653.87 415.917 650.779 372.428C649.023 347.05 642.404 322.132 642.182 296.691C641.824 260.961 654.723 225.322 677.918 197.749" fill="#FF1D1D"/>
<mask id="path-2-inside-1_109_3" fill="white">
<path d="M684.085 198.988C676.662 151.783 643.628 110.408 601.421 86.0926C568.162 66.8879 527.998 58.2585 489.785 54.4484C368.988 42.3726 371.426 191.627 279.803 234.492C250.173 248.354 217.756 255.659 186.43 265.525C107.379 290.539 58.6246 353.611 78.1915 436.713C95.064 508.446 153.406 573.485 219.679 606.784C301.358 647.706 397.769 653.113 488.93 640.897C551.914 632.543 619.589 612.255 654.048 560.218C675.59 527.826 680.66 487.966 683.866 449.554C687.474 406.106 689.21 361.702 676.995 319.85C669.913 295.417 658.175 272.461 652.579 247.643C644.675 212.796 649.748 175.236 666.59 143.382"/>
</mask>
<path d="M601.421 86.0926L600.921 86.9586L600.922 86.9591L601.421 86.0926ZM489.785 54.4484L489.685 55.4434L489.685 55.4434L489.785 54.4484ZM279.803 234.492L280.227 235.398L280.227 235.398L279.803 234.492ZM186.43 265.525L186.13 264.571L186.128 264.572L186.43 265.525ZM78.1915 436.713L79.1649 436.484L79.1649 436.484L78.1915 436.713ZM219.679 606.784L219.23 607.678L219.231 607.678L219.679 606.784ZM488.93 640.897L488.798 639.906L488.797 639.906L488.93 640.897ZM654.048 560.218L653.215 559.665L653.214 559.666L654.048 560.218ZM683.866 449.554L684.862 449.637L684.862 449.637L683.866 449.554ZM676.995 319.85L676.034 320.128L676.035 320.13L676.995 319.85ZM652.579 247.643L653.555 247.423L653.554 247.422L652.579 247.643ZM685.072 198.832C677.594 151.272 644.334 109.66 601.921 85.2261L600.922 86.9591C642.922 111.155 675.73 152.295 683.097 199.143L685.072 198.832ZM601.922 85.2266C568.485 65.9196 528.159 57.2696 489.884 53.4533L489.685 55.4434C527.837 59.2474 567.84 67.8561 600.921 86.9586L601.922 85.2266ZM489.884 53.4533C459.455 50.4114 436.714 57.5326 418.318 70.6436C399.961 83.7267 385.993 102.732 373.008 123.334C359.985 143.997 347.991 166.189 333.473 185.987C318.982 205.748 302.075 222.969 279.379 233.587L280.227 235.398C303.343 224.584 320.49 207.073 335.086 187.17C349.654 167.305 361.78 144.901 374.7 124.401C387.658 103.841 401.456 85.1176 419.479 72.2722C437.463 59.4547 459.716 52.4475 489.685 55.4434L489.884 53.4533ZM279.379 233.587C249.828 247.411 217.565 254.671 186.13 264.571L186.731 266.479C217.948 256.647 250.517 249.297 280.227 235.398L279.379 233.587ZM186.128 264.572C146.435 277.132 114.274 299.27 94.4984 328.779C74.7105 358.306 67.3749 395.137 77.2181 436.942L79.1649 436.484C69.4413 395.187 76.6995 358.931 96.1598 329.893C115.632 300.837 147.374 278.932 186.732 266.478L186.128 264.572ZM77.2181 436.942C94.1701 509.013 152.742 574.27 219.23 607.678L220.128 605.891C154.07 572.699 95.9579 507.879 79.1649 436.484L77.2181 436.942ZM219.231 607.678C301.155 648.723 397.791 654.119 489.063 641.888L488.797 639.906C397.748 652.107 301.561 646.689 220.127 605.89L219.231 607.678ZM489.061 641.888C552.08 633.529 620.162 613.201 654.881 560.77L653.214 559.666C619.015 611.31 551.748 631.556 488.798 639.906L489.061 641.888ZM654.88 560.772C676.581 528.142 681.657 488.039 684.862 449.637L682.869 449.471C679.663 487.892 674.6 527.509 653.215 559.665L654.88 560.772ZM684.862 449.637C688.471 406.181 690.226 361.615 677.955 319.57L676.035 320.13C688.194 361.79 686.477 406.031 682.869 449.471L684.862 449.637ZM677.955 319.572C674.4 307.306 669.676 295.41 665.165 283.536C660.646 271.643 656.336 259.757 653.555 247.423L651.604 247.863C654.419 260.347 658.775 272.348 663.295 284.246C667.822 296.162 672.508 307.961 676.034 320.128L677.955 319.572ZM653.554 247.422C645.704 212.811 650.742 175.494 667.474 143.849L665.706 142.915C648.754 174.977 643.646 212.781 651.604 247.864L653.554 247.422Z" fill="black" mask="url(#path-2-inside-1_109_3)"/>
</svg>
