<svg width="798" height="644" viewBox="0 0 798 644" fill="none" xmlns="http://www.w3.org/2000/svg">
<path d="M680.556 481.207C736.256 449.507 775.356 397.007 790.156 344.807C801.756 303.707 797.856 261.707 788.656 224.107C759.656 105.107 575.856 185.607 489.456 122.707C461.456 102.307 440.656 75.9073 417.056 51.9073C357.356 -8.69269 261.556 -21.0927 165.756 40.8073C83.1557 94.2073 23.9557 182.707 6.95567 262.007C-13.9443 359.707 14.4557 452.407 62.7557 531.107C96.0557 585.407 145.756 637.907 222.756 642.807C270.656 645.807 321.856 629.707 370.556 612.607C425.556 593.207 481.256 571.507 528.556 538.207C556.156 518.807 580.356 495.707 608.956 477.507C649.256 451.907 697.556 436.907 743.056 435.907" fill="url(#paint0_linear_103_6)"/>
<defs>
<linearGradient id="paint0_linear_103_6" x1="232" y1="347" x2="567.994" y2="10.9939" gradientUnits="userSpaceOnUse">
<stop stop-color="#F59B26"/>
<stop offset="1" stop-color="#F4C236"/>
</linearGradient>
</defs>
</svg>
