<svg width="615" height="579" viewBox="0 0 615 579" fill="none" xmlns="http://www.w3.org/2000/svg">
<path d="M50.1732 150.294C15.6756 179.325 -1.24305 226.91 0.258343 273.896C1.40577 310.943 14.5836 348.637 30.6848 382.371C81.5557 489.023 201.193 414.782 281.905 470.509C308.007 488.531 330.198 512.05 353.915 533.42C413.861 587.29 489.413 597.465 546.881 540.933C596.497 492.149 619.87 411.995 613.561 340.578C605.688 252.616 561.66 169.54 505.998 99.3724C467.61 50.8511 417.204 4.18742 357.765 0.604595C320.718 -1.70295 285.896 13.3496 253.183 29.2572C216.188 47.2654 179.36 67.2982 151.603 97.7397C135.373 115.47 122.678 136.371 105.39 153.048C81.1411 176.502 48.1793 190.44 13.9295 191.795" fill="url(#paint0_linear_103_10)"/>
<defs>
<linearGradient id="paint0_linear_103_10" x1="61" y1="782" x2="565" y2="110" gradientUnits="userSpaceOnUse">
<stop stop-color="#E15D5D"/>
<stop offset="0.9999" stop-color="#FF0101"/>
<stop offset="1" stop-color="#FF0000" stop-opacity="0"/>
</linearGradient>
</defs>
</svg>
