<svg width="740" height="692" viewBox="0 0 740 692" fill="none" xmlns="http://www.w3.org/2000/svg">
<path d="M707.329 303.473C739.459 248.02 746.768 182.969 733.241 130.425C722.544 89.0805 698.007 54.7712 671.109 26.9335C586.084 -61.2289 467.911 100.938 361.585 90.1591C327.12 86.6525 295.849 74.3347 263.369 65.5011C181.263 43.2517 92.2718 80.8274 40.7294 182.575C-3.69659 270.329 -10.221 376.603 15.0653 453.662C46.2573 548.579 117.509 614.329 198.892 657.957C255.021 688.071 324.408 708.365 393.382 673.787C436.265 652.236 472.371 612.524 505.814 573.209C543.538 528.732 580.709 481.916 604.777 429.315C618.837 398.648 628.095 366.5 643.624 336.366C665.527 293.943 699.683 256.643 738.477 232.847" fill="url(#paint0_linear_103_11)"/>
<defs>
<linearGradient id="paint0_linear_103_11" x1="571.547" y1="-44.4586" x2="120.013" y2="607.267" gradientUnits="userSpaceOnUse">
<stop stop-color="#F59B26"/>
<stop offset="1" stop-color="#F4C236"/>
</linearGradient>
</defs>
</svg>
