<?xml version="1.0" encoding="UTF-8"?> <!-- Generator: Adobe Illustrator 25.3.1, SVG Export Plug-In . SVG Version: 6.00 Build 0) --> <svg xmlns="http://www.w3.org/2000/svg" xmlns:xlink="http://www.w3.org/1999/xlink" version="1.1" id="Layer_1" x="0px" y="0px" viewBox="0 0 80 80" style="enable-background:new 0 0 80 80;" xml:space="preserve"> <style type="text/css"> .st0{fill:#1B54F8;} .st1{fill:none;stroke:#1B54F8;stroke-width:1.5;stroke-miterlimit:10;} </style> <path class="st0" d="M49,38H32c-0.8,0-1.5,0.7-1.5,1.5S31.2,41,32,41h17c0.8,0,1.5-0.7,1.5-1.5S49.8,38,49,38z"></path> <path class="st0" d="M42,45H32c-0.8,0-1.5,0.7-1.5,1.5S31.2,48,32,48h10c0.8,0,1.5-0.7,1.5-1.5S42.8,45,42,45z"></path> <path class="st0" d="M70.1,52.3c-0.2-0.1-0.4-0.1-0.6,0L66.9,54v-0.1c0-1-0.8-1.8-1.8-1.8l0,0h-7.6c-1,0-1.8,0.8-1.8,1.8v4.5 c0,1,0.8,1.8,1.8,1.8h7.6c1,0,1.8-0.8,1.8-1.8v0v-0.1l2.6,1.7c0.1,0.1,0.2,0.1,0.3,0.1c0.1,0,0.2,0,0.3-0.1c0.2-0.1,0.3-0.3,0.3-0.5 v-6.8C70.4,52.6,70.3,52.4,70.1,52.3z M65.8,58.5c0,0.4-0.3,0.7-0.7,0.7h-7.7c-0.4,0-0.7-0.3-0.7-0.7v0v-4.5c0-0.4,0.3-0.7,0.7-0.7 h0h7.7c0.4,0,0.7,0.3,0.7,0.7V58.5z M69.3,58.6l-2.4-1.5v-1.7l2.4-1.5V58.6z"></path> <path class="st0" d="M29.4,17.7c-0.5,0-1,0.5-1,1v3.3c0,0.6,0.4,1.1,1,1.1c0.6,0,1.1-0.5,1.1-1.1c0,0,0,0,0,0v-3.4 C30.5,18.1,30,17.7,29.4,17.7z"></path> <path class="st0" d="M51.9,17c-0.5,0-1,0.5-1,1v3.3c0,0.6,0.4,1.1,1,1.1c0.6,0,1.1-0.5,1.1-1.1V18C53,17.4,52.5,17,51.9,17z"></path> <path class="st1" d="M48.5,21.4H33v0.6c0.3,1.9-1.1,3.7-3,4s-3.7-1.1-4-3c0-0.3,0-0.6,0-0.9v-0.6h-2.2c-1.5,0-2.8,1.2-2.8,2.8 c0,0,0,0.1,0,0.1v3.6h39.5v-3.6c0-1.6-1.3-2.8-2.8-2.9h-2.1v0.6c0.1,1.9-1.4,3.6-3.3,3.7s-3.6-1.4-3.7-3.3c0-0.1,0-0.3,0-0.4V21.4z"></path> <circle class="st1" cx="63" cy="56.2" r="10.4"></circle> <path class="st1" d="M60.5,42.3L60.5,42.3V27.8H21v27.7c0,1.6,1.3,2.8,2.8,2.8h25.3c-0.2-1.1-0.4-2.1-0.4-3.2 C48.7,48.5,53.8,42.9,60.5,42.3z"></path> <g> <path class="st0" d="M76.2,2.6c0.7,0,1.2,0.5,1.2,1.2v72.5c0,0.7-0.6,1.2-1.2,1.2H3.8c-0.7,0-1.2-0.5-1.2-1.2V3.7 c0-0.7,0.6-1.2,1.2-1.2H76.2 M76.2,0.6H3.8C2,0.6,0.6,2,0.6,3.7v72.5c0,1.8,1.4,3.2,3.2,3.2h72.4c1.8,0,3.2-1.4,3.2-3.2V3.7 C79.4,2,78,0.6,76.2,0.6L76.2,0.6z"></path> </g> </svg> 