<?xml version="1.0" encoding="UTF-8"?> <svg xmlns="http://www.w3.org/2000/svg" id="Layer_1" data-name="Layer 1" viewBox="0 0 80 80"><defs><style>.cls-1{fill:#1b54f8;}</style></defs><g id="Build_a_Product" data-name="Build a Product"><g id="Group"><rect id="Rectangle" class="cls-1" x="38.97" y="60.67" width="2.07" height="2.07"></rect><path id="Shape" class="cls-1" d="M70,62.73h-1V25.53A4.13,4.13,0,0,0,64.8,21.4H58.6V13.13A4.13,4.13,0,0,0,54.47,9H25.53a4.13,4.13,0,0,0-4.13,4.13V21.4H15.2a4.13,4.13,0,0,0-4.13,4.13v37.2H10a1,1,0,0,0-1,1v3.1A4.13,4.13,0,0,0,13.13,71H66.87A4.13,4.13,0,0,0,71,66.87v-3.1A1,1,0,0,0,70,62.73Zm-44.44-9.3H54.47A4.13,4.13,0,0,0,58.6,49.3V27.6h4.13V56.53H17.27V27.6H21.4V49.3A4.13,4.13,0,0,0,25.53,53.43Zm-2.06-34.1H56.53v30a2.07,2.07,0,0,1-2.06,2.07H25.53a2.07,2.07,0,0,1-2.06-2.07Zm2.06-8.26H54.47a2.06,2.06,0,0,1,2.06,2.06v4.14H23.47V13.13A2.06,2.06,0,0,1,25.53,11.07ZM13.13,25.53a2.07,2.07,0,0,1,2.07-2.06h6.2v2.06H16.23a1,1,0,0,0-1,1v31a1,1,0,0,0,1,1H63.77a1,1,0,0,0,1-1v-31a1,1,0,0,0-1-1H58.6V23.47h6.2a2.07,2.07,0,0,1,2.07,2.06v37.2H49.3a1,1,0,0,0-.73.31L46.81,64.8H33.19L31.43,63a1,1,0,0,0-.73-.31H13.13Zm55.8,41.34a2.06,2.06,0,0,1-2.06,2.06H13.13a2.06,2.06,0,0,1-2.06-2.06V64.8h19.2L32,66.56a1,1,0,0,0,.73.31H47.23a1,1,0,0,0,.73-.31l1.77-1.76h19.2Z"></path><rect id="Rectangle-2" data-name="Rectangle" class="cls-1" x="26.57" y="42.07" width="26.87" height="2.07"></rect><rect id="Rectangle-3" data-name="Rectangle" class="cls-1" x="26.57" y="46.2" width="24.8" height="2.07"></rect><rect id="Rectangle-4" data-name="Rectangle" class="cls-1" x="32.77" y="37.93" width="20.67" height="2.07"></rect><rect id="Rectangle-5" data-name="Rectangle" class="cls-1" x="25.53" y="13.13" width="2.07" height="2.07"></rect><rect id="Rectangle-6" data-name="Rectangle" class="cls-1" x="29.67" y="13.13" width="2.07" height="2.07"></rect><rect id="Rectangle-7" data-name="Rectangle" class="cls-1" x="33.8" y="13.13" width="2.07" height="2.07"></rect><rect id="Rectangle-8" data-name="Rectangle" class="cls-1" x="28.63" y="37.93" width="2.07" height="2.07"></rect><path id="Path" class="cls-1" d="M35.25,32.56l1.24-1.65-3-2.28,3-2.27-1.24-1.65-4.14,3.1a1,1,0,0,0-.41.82,1,1,0,0,0,.41.83Z"></path><path id="Path-2" data-name="Path" class="cls-1" d="M44.75,32.56l4.14-3.1a1,1,0,0,0,.41-.83,1,1,0,0,0-.41-.82l-4.14-3.1-1.24,1.65,3,2.27-3,2.28Z"></path><polygon id="Rectangle-9" data-name="Rectangle" class="cls-1" points="36.97 33.42 41.11 23.08 43.03 23.85 38.89 34.18 36.97 33.42"></polygon></g></g></svg> 