<?xml version="1.0" encoding="UTF-8"?> <svg xmlns="http://www.w3.org/2000/svg" id="Layer_1" data-name="Layer 1" viewBox="0 0 80 80"><defs><style>.cls-1{fill:#1b54f8;stroke:#1b54f8;stroke-width:0.5px;}</style></defs><g id="Prototype"><g id="Group"><path id="Shape" class="cls-1" d="M37.61,59.45a4,4,0,1,0,4.08,4A4.07,4.07,0,0,0,37.61,59.45Zm0,6a1.94,1.94,0,1,1,2-1.94A1.91,1.91,0,0,1,37.61,65.43Z"></path><path id="Path" class="cls-1" d="M39.32,12.8h-3.4a1,1,0,1,0,0,2h3.4a1,1,0,0,0,1-1A1,1,0,0,0,39.32,12.8Z"></path><path id="Shape-2" data-name="Shape" class="cls-1" d="M25.2,34.27h10a1,1,0,0,0,1-1V23.41a1,1,0,0,0-1-1H25.2a1,1,0,0,0-1,1v9.85A.94.94,0,0,0,25.2,34.27Zm1-9.76h7.83v7.74H26.22Z"></path><polygon id="Path-2" data-name="Path" class="cls-1" points="50.96 23.58 50.96 22.48 39.91 22.48 39.91 23.58 39.91 24.59 50.96 24.59 50.96 23.58"></polygon><polygon id="Path-3" data-name="Path" class="cls-1" points="50.96 28.3 50.96 27.28 39.91 27.28 39.91 28.3 39.91 29.39 50.96 29.39 50.96 28.3"></polygon><polygon id="Path-4" data-name="Path" class="cls-1" points="50.96 33.26 50.96 32.17 39.91 32.17 39.91 33.26 39.91 34.27 50.96 34.27 50.96 33.26"></polygon><rect id="Rectangle" class="cls-1" x="30.56" y="50.44" width="5.7" height="2.11"></rect><rect id="Rectangle-2" data-name="Rectangle" class="cls-1" x="38.89" y="50.44" width="5.69" height="2.11"></rect><path id="Path-5" data-name="Path" class="cls-1" d="M26.22,48.76H24.1v2.69a1,1,0,0,0,1,1h2.72v-2.1h-1.7v-1.6Z"></path><rect id="Rectangle-3" data-name="Rectangle" class="cls-1" x="24.1" y="43.12" width="2.13" height="3.87"></rect><path id="Path-6" data-name="Path" class="cls-1" d="M24.1,38.57v2.69h2.12V39.58h1.71V37.47H25.2A1.19,1.19,0,0,0,24.1,38.57Z"></path><rect id="Rectangle-4" data-name="Rectangle" class="cls-1" x="38.89" y="37.56" width="5.69" height="2.11"></rect><rect id="Rectangle-5" data-name="Rectangle" class="cls-1" x="30.56" y="37.56" width="5.7" height="2.11"></rect><path id="Path-7" data-name="Path" class="cls-1" d="M49.94,37.56H47.22v2.1h1.7v1.69H51v-2.7A1.11,1.11,0,0,0,49.94,37.56Z"></path><path id="Shape-3" data-name="Shape" class="cls-1" d="M69.74,60.72a1.32,1.32,0,0,0-.42-.93l-3.57-2.61V45.73a1,1,0,0,0-1-1H55.89V9.18a1,1,0,0,0-1-1H20.27a1,1,0,0,0-1,1V70.82a1,1,0,0,0,1,1h34.6a1,1,0,0,0,1-1V61.05H59l.34,4.8a1,1,0,0,0,.59.84,1.06,1.06,0,0,0,.52.09,1.71,1.71,0,0,0,.59-.17l3.32-2,3.14,5.56a1.07,1.07,0,0,0,.93.5,1.18,1.18,0,0,0,.52-.17,1.07,1.07,0,0,0,.42-1.43l-3.23-5.64,3.15-1.94C69.58,61.39,69.74,61.14,69.74,60.72Zm-5.52,1.43c0,.08-.09.08,0,0a.28.28,0,0,1-.17.08l-2.72,1.6-.17-2.78-.08-1L61,59l-.17-2.69,2.8,2.1,1,.76,1,.76,1.1.76ZM55.89,59H49V46.74H63.54v8.84l-3.4-2.53A1.06,1.06,0,0,0,59,53a1,1,0,0,0-.5,1l.34,4.88h-3ZM53.76,69.81H21.38V57.18H46.8V60a1,1,0,0,0,1,1h5.94ZM21.38,19.54H53.85V44.72H51V43.2H48.92v1.52h-1a1,1,0,0,0-1,1v9.34H21.38Zm0-9.35H53.85v7.16H21.38Z"></path></g></g></svg> 