<?xml version="1.0" encoding="UTF-8"?> <!-- Generator: Adobe Illustrator 25.3.1, SVG Export Plug-In . SVG Version: 6.00 Build 0) --> <svg xmlns="http://www.w3.org/2000/svg" xmlns:xlink="http://www.w3.org/1999/xlink" version="1.1" id="Layer_1" x="0px" y="0px" viewBox="0 0 80 80" style="enable-background:new 0 0 80 80;" xml:space="preserve"> <style type="text/css"> .st0{fill:#1B54F8;} .st1{fill:none;stroke:#1B54F8;stroke-width:1.5;stroke-miterlimit:10;} </style> <path class="st0" d="M67.1,57.3c-0.2-0.1-0.4-0.1-0.6,0L63.9,59v-0.1c0-1-0.8-1.8-1.8-1.8h0h-7.6c-1,0-1.8,0.8-1.8,1.8v4.5 c0,1,0.8,1.8,1.8,1.8h7.7c1,0,1.8-0.8,1.8-1.8v0v-0.1l2.6,1.7c0.1,0.1,0.2,0.1,0.3,0.1c0.1,0,0.2,0,0.3-0.1c0.2-0.1,0.3-0.3,0.3-0.5 v-6.8C67.4,57.6,67.3,57.4,67.1,57.3z M62.8,63.5c0,0.4-0.3,0.7-0.7,0.7h-7.7c-0.4,0-0.7-0.3-0.7-0.7v0v-4.5c0-0.4,0.3-0.7,0.7-0.7 h0h7.7c0.4,0,0.7,0.3,0.7,0.7v0V63.5z M66.3,63.6l-2.4-1.5v-1.7l2.4-1.5V63.6z"></path> <circle class="st1" cx="60" cy="61.2" r="10.4"></circle> <circle class="st1" cx="36.8" cy="25" r="10.8"></circle> <path class="st1" d="M56.4,48h0.1c-2.9-5.6-8.3-9.5-14.5-10.6c-3.3,1.4-7,1.4-10.3,0c-9.7,1.7-16.8,10.1-16.9,20v3.7 c0,1.9,1.5,3.4,3.4,3.4h28.2c-0.8-1.6-1.3-3.4-1.3-5.2C45.1,53.1,50.2,48,56.4,48z"></path> <g> <path class="st0" d="M76.2,2.6c0.7,0,1.2,0.5,1.2,1.2v72.5c0,0.7-0.6,1.2-1.2,1.2H3.8c-0.7,0-1.2-0.5-1.2-1.2V3.7 c0-0.7,0.6-1.2,1.2-1.2H76.2 M76.2,0.6H3.8C2,0.6,0.5,2,0.5,3.7v72.5c0,1.8,1.4,3.2,3.2,3.2h72.4c1.8,0,3.2-1.4,3.2-3.2V3.7 C79.5,2,78,0.6,76.2,0.6L76.2,0.6z"></path> </g> </svg> 