<?xml version="1.0" encoding="UTF-8"?> <!-- Generator: Adobe Illustrator 25.3.1, SVG Export Plug-In . SVG Version: 6.00 Build 0) --> <svg xmlns="http://www.w3.org/2000/svg" xmlns:xlink="http://www.w3.org/1999/xlink" version="1.1" id="Layer_1" x="0px" y="0px" viewBox="0 0 80 80" style="enable-background:new 0 0 80 80;" xml:space="preserve"> <style type="text/css"> .st0{fill:#1B54F8;} .st1{fill:#1B54F8;stroke:#1B54F8;stroke-width:0.5;stroke-miterlimit:10;} </style> <path class="st0" d="M54.7,48.5h-20c-0.3,0-0.5-0.2-0.5-0.5c0-0.3,0.2-0.5,0.5-0.5h20c0.3,0,0.5,0.2,0.5,0.5S55,48.5,54.7,48.5z"></path> <path class="st0" d="M54.7,54.1h-20c-0.3,0-0.5-0.2-0.5-0.5c0-0.3,0.2-0.5,0.5-0.5h20c0.3,0,0.5,0.2,0.5,0.5S55,54.1,54.7,54.1z"></path> <path class="st0" d="M54.7,43h-20c-0.3,0-0.5-0.2-0.5-0.5c0-0.3,0.2-0.5,0.5-0.5h20c0.3,0,0.5,0.2,0.5,0.5S55,43,54.7,43z"></path> <path class="st0" d="M54.7,37.5h-20c-0.3,0-0.5-0.2-0.5-0.5s0.2-0.5,0.5-0.5h20c0.3,0,0.5,0.2,0.5,0.5S55,37.5,54.7,37.5z"></path> <path class="st0" d="M54.9,31.1H41.1c-0.2,0-0.3-0.2-0.3-0.5s0.2-0.5,0.3-0.5h13.8c0.2,0,0.3,0.2,0.3,0.5S55.1,31.1,54.9,31.1z"></path> <path class="st0" d="M54.9,26.8H41.1c-0.2,0-0.3-0.2-0.3-0.5s0.2-0.5,0.3-0.5h13.8c0.2,0,0.3,0.2,0.3,0.5S55.1,26.8,54.9,26.8z"></path> <path class="st0" d="M54.9,22.6H41.1c-0.2,0-0.3-0.2-0.3-0.5s0.2-0.5,0.3-0.5h13.8c0.2,0,0.3,0.2,0.3,0.5S55.1,22.6,54.9,22.6z"></path> <path class="st1" d="M58.7,43.5V18H28.2v22h-7v18.5c0,1.9,1.6,3.5,3.5,3.5l0,0h34C58.7,62,58.7,43.5,58.7,43.5z M25.2,61 c-1.7,0-3-1.3-3-3l0,0V41h6v17C28.2,59.7,26.9,61,25.2,61L25.2,61z M57.8,61H27.9c0.9-0.8,1.4-1.9,1.4-3V19h28.5v24.1l0,0L57.8,61z"></path> <path class="st0" d="M35.3,26.2v-2.1c0.3,0.2,0.5,0.5,0.5,0.9c0,0.3,0.2,0.5,0.5,0.5s0.5-0.2,0.5-0.5c0-0.9-0.6-1.7-1.5-1.9v-0.3 c0-0.3-0.2-0.5-0.5-0.5s-0.5,0.2-0.5,0.5v0.3c-0.9,0.2-1.5,1-1.5,1.9c0,1,0.8,1.5,1.5,1.8v2c-0.3-0.2-0.5-0.5-0.5-0.9 c0-0.3-0.2-0.5-0.5-0.5s-0.5,0.2-0.5,0.5c0,0.9,0.6,1.7,1.5,1.9v0.3c0,0.3,0.2,0.5,0.5,0.5s0.5-0.2,0.5-0.5v-0.3 c0.9-0.2,1.5-1,1.5-1.9C36.8,27,36,26.5,35.3,26.2z M33.8,25c0-0.4,0.2-0.7,0.5-0.9v1.5C33.9,25.5,33.8,25.3,33.8,25z M35.3,28.9 v-1.5c0.3,0.2,0.5,0.4,0.5,0.7C35.8,28.4,35.6,28.7,35.3,28.9z"></path> <g> <path class="st0" d="M76.2,2.5c0.7,0,1.2,0.5,1.2,1.2v72.5c0,0.7-0.6,1.2-1.2,1.2H3.8c-0.7,0-1.2-0.5-1.2-1.2V3.7 c0-0.7,0.6-1.2,1.2-1.2H76.2 M76.2,0.5H3.8C2,0.5,0.5,2,0.5,3.7v72.5c0,1.8,1.4,3.2,3.2,3.2h72.4c1.8,0,3.2-1.4,3.2-3.2V3.7 C79.5,2,78,0.5,76.2,0.5L76.2,0.5z"></path> </g> </svg> 