<?xml version="1.0" encoding="UTF-8"?> <svg xmlns="http://www.w3.org/2000/svg" id="Layer_1" data-name="Layer 1" viewBox="0 0 80 80"><defs><style>.cls-1{fill:#1b54f8;}</style></defs><g id="Mobile-App-Development"><g id="Shape-5"><path id="Shape" class="cls-1" d="M28.62,40A11.18,11.18,0,1,0,39.79,28.83,11.18,11.18,0,0,0,28.62,40Zm11.17-9.31A9.31,9.31,0,1,1,30.48,40,9.32,9.32,0,0,1,39.79,30.69Zm3.07,11.44L45,40l-2.13-2.13,1.32-1.32L47.63,40l-3.45,3.45ZM32,40l3.45-3.45,1.32,1.32L34.59,40l2.14,2.13-1.32,1.32Zm7.81,4.84L38,44.47l1.86-9.31,1.83.37ZM60.28,22.31v9.31h9.31V22.31Zm7.44,7.45H62.14V24.17h5.58ZM65.86,27.9H64V26h1.86ZM49.1,26h9.31V27.9H49.1ZM30.48,29.76H21.17V27.9h9.31ZM10,33.48h9.31V24.17H10ZM11.86,26h5.59v5.59H11.86Zm1.86,1.87h1.87v1.86H13.72ZM30.48,54H21.17V52.1h9.31ZM10,57.69h9.31V48.38H10Zm1.86-7.45h5.59v5.59H11.86Zm1.86,1.86h1.87V54H13.72ZM49.1,50.24h9.31V52.1H49.1Zm11.18,5.59h9.31V46.52H60.28Zm1.86-7.45h5.58V54H62.14ZM64,50.24h1.86V52.1H64ZM42.59,62.34H37V60.48h5.59ZM38.86,17.66h5.59v1.86H38.86Zm-3.72,0H37v1.86H35.14ZM54.69,55.83H23v7.45A3.73,3.73,0,0,0,26.76,67H52.83a3.73,3.73,0,0,0,3.72-3.72V54H54.69Zm0,7.45a1.87,1.87,0,0,1-1.86,1.86H26.76a1.86,1.86,0,0,1-1.86-1.86V57.69H54.69ZM23,50.24V31.62H24.9V50.24ZM24.9,24.17H56.55V16.72A3.73,3.73,0,0,0,52.83,13H26.76A3.73,3.73,0,0,0,23,16.72V26H24.9Zm0-7.45a1.86,1.86,0,0,1,1.86-1.86H52.83a1.87,1.87,0,0,1,1.86,1.86v5.59H24.9Zm31.65,13V48.38H54.69V29.76Z"></path></g></g></svg> 