<?xml version="1.0" encoding="UTF-8"?> <!-- Generator: Adobe Illustrator 25.3.1, SVG Export Plug-In . SVG Version: 6.00 Build 0) --> <svg xmlns="http://www.w3.org/2000/svg" xmlns:xlink="http://www.w3.org/1999/xlink" version="1.1" id="Layer_1" x="0px" y="0px" viewBox="0 0 80 80" style="enable-background:new 0 0 80 80;" xml:space="preserve"> <style type="text/css"> .st0{fill:#1B54F8;stroke:#1B54F8;stroke-width:0.25;stroke-miterlimit:10;} .st1{fill:#1B54F8;} </style> <path class="st0" d="M34.6,49.8c-0.2,0-0.4-0.1-0.5-0.2l-4.3-4.2c-0.2-0.2-0.2-0.5-0.2-0.7c1.1-3.5,2.4-6.8,4-10.1 c1.6-3.3,3.6-7.4,6.3-10.3l0,0c6-6.4,15.7-6.6,21-6.2c0.4,0,0.6,0.3,0.7,0.7c0.4,5.2,0,14.9-6.2,20.9c-2.8,2.7-7,4.7-10.4,6.3 c-3.3,1.6-6.7,2.9-10.2,4C34.8,49.8,34.7,49.8,34.6,49.8z M31.2,44.6l3.7,3.6c3.3-1,6.5-2.3,9.5-3.7c3.4-1.6,7.3-3.5,10-6 c5.6-5.3,6.1-14,5.8-19.1c-5.1-0.3-13.8,0.1-19.2,5.8c-2.5,2.7-4.5,6.7-6,9.9C33.5,38.2,32.2,41.4,31.2,44.6z"></path> <path class="st1" d="M47.5,36c-2.2,0-4-1.7-4-3.9c0,0,0,0,0-0.1c0-1,0.4-2.1,1.2-2.8c1.6-1.5,4-1.5,5.6,0c1.5,1.5,1.6,4,0.1,5.5 c0,0,0,0-0.1,0.1l0,0C49.5,35.6,48.5,36,47.5,36z M47.5,29.5c-0.7,0-1.3,0.3-1.8,0.7c-1,1-1,2.6,0,3.5c0,0,0,0,0,0c1,1,2.6,1,3.6,0 l0,0c1-1,1-2.6,0-3.6C48.8,29.8,48.1,29.5,47.5,29.5z"></path> <path class="st0" d="M31.9,40.5L31.9,40.5l-7.2-0.6c-0.2,0-0.4-0.1-0.5-0.3c-0.1-0.2-0.2-0.4-0.1-0.6c0.2-0.8,2.6-7.5,13.7-12 c0.3-0.1,0.6,0,0.8,0.2c0.2,0.2,0.2,0.6,0.1,0.8c-0.1,0.2-0.2,0.3-0.4,0.3c-8.5,3.5-11.5,8.3-12.4,10.2l6.2,0.5 c0.4,0,0.7,0.3,0.7,0.7C32.6,40.2,32.3,40.5,31.9,40.5z"></path> <path class="st0" d="M40.3,55.4c-0.4,0-0.7-0.3-0.7-0.7L39,47.6c0-0.4,0.3-0.7,0.7-0.7c0.3,0,0.6,0.3,0.7,0.6l0.5,6.1 c2-0.9,6.8-3.9,10.3-12.3c0.1-0.2,0.2-0.3,0.3-0.4h0.1c0.3-0.1,0.6-0.1,0.8,0.1c0.2,0.2,0.3,0.5,0.2,0.8 c-4.5,11-11.3,13.3-12.1,13.6C40.4,55.4,40.4,55.4,40.3,55.4z"></path> <path class="st0" d="M59.7,31.5c-0.2,0-0.4-0.1-0.5-0.2l-11-11c-0.3-0.3-0.3-0.7,0-1c0.3-0.3,0.7-0.3,1,0l11,11c0.3,0.3,0.3,0.7,0,1 C60.1,31.5,59.9,31.5,59.7,31.5z"></path> <path class="st0" d="M19.5,61.7c-0.2,0-0.4-0.1-0.5-0.2c-0.3-0.3-0.3-0.7,0-1l9.7-10.1c0.3-0.3,0.7-0.2,1,0.1c0.2,0.3,0.2,0.6,0,0.9 L20,61.5C19.9,61.6,19.7,61.7,19.5,61.7z"></path> <path class="st0" d="M26.3,62.1c-0.2,0-0.3-0.1-0.5-0.2c-0.3-0.3-0.3-0.7-0.1-1l6.3-7.1c0.3-0.3,0.7-0.3,1,0s0.3,0.7,0,1l-6.3,7.1 C26.7,62.1,26.5,62.1,26.3,62.1z"></path> <path class="st0" d="M19,55.3c-0.2,0-0.3-0.1-0.5-0.2c-0.3-0.3-0.3-0.7-0.1-1l6.3-7.1c0.2-0.3,0.7-0.4,1-0.2c0.3,0.2,0.4,0.7,0.2,1 c0,0-0.1,0.1-0.1,0.1L19.6,55C19.4,55.2,19.2,55.3,19,55.3z"></path> <g> <path class="st1" d="M76.2,2.5c0.7,0,1.2,0.5,1.2,1.2v72.5c0,0.7-0.6,1.2-1.2,1.2H3.8c-0.7,0-1.2-0.5-1.2-1.2V3.7 c0-0.7,0.6-1.2,1.2-1.2H76.2 M76.2,0.5H3.8C2,0.5,0.5,2,0.5,3.7v72.5c0,1.8,1.4,3.2,3.2,3.2h72.4c1.8,0,3.2-1.4,3.2-3.2V3.7 C79.5,2,78,0.5,76.2,0.5L76.2,0.5z"></path> </g> </svg> 