<?xml version="1.0" encoding="UTF-8"?> <!-- Generator: Adobe Illustrator 25.2.3, SVG Export Plug-In . SVG Version: 6.00 Build 0) --> <svg xmlns="http://www.w3.org/2000/svg" xmlns:xlink="http://www.w3.org/1999/xlink" version="1.1" id="Layer_1" x="0px" y="0px" viewBox="0 0 80 80" style="enable-background:new 0 0 80 80;" xml:space="preserve"> <style type="text/css"> .st0{fill:#1B54F8;stroke:#1B54F8;stroke-width:0.7;} </style> <desc>Created with Sketch.</desc> <g id="Page-1"> <g id="Artboard" transform="translate(-42.000000, -180.000000)"> <g id="noun_setting-server_2471190" transform="translate(55.000000, 194.000000)"> <g id="Group"> <path id="Shape" class="st0" d="M9.8,11.6c1.7,0,3.1-1.4,3.1-3.1s-1.4-3.1-3.1-3.1S6.7,6.8,6.7,8.5S8.1,11.6,9.8,11.6z M9.8,6.9 c0.9,0,1.6,0.7,1.6,1.6c0,0.9-0.7,1.6-1.6,1.6c-0.9,0-1.6-0.7-1.6-1.6C8.2,7.6,8.9,6.9,9.8,6.9z"></path> <rect id="Rectangle" x="18" y="4.9" class="st0" width="23.5" height="1.5"></rect> <rect id="Rectangle_1_" x="18" y="10.6" class="st0" width="23.5" height="1.5"></rect> <path id="Shape_1_" class="st0" d="M6.7,23.8c0,1.7,1.4,3.1,3.1,3.1s3.1-1.4,3.1-3.1c0-1.7-1.4-3.1-3.1-3.1S6.7,22.1,6.7,23.8z M11.4,23.8c0,0.9-0.7,1.6-1.6,1.6c-0.9,0-1.6-0.7-1.6-1.6c0-0.9,0.7-1.6,1.6-1.6C10.7,22.2,11.4,22.9,11.4,23.8z"></path> <rect id="Rectangle_2_" x="18" y="20.2" class="st0" width="8.2" height="1.5"></rect> <rect id="Rectangle_3_" x="18" y="25.9" class="st0" width="5.9" height="1.5"></rect> <path id="Shape_2_" class="st0" d="M2.1,43.6v-8.8c0-1.4,1.1-2.5,2.5-2.5h17v-1.5h-17c-1.4,0-2.5-1.1-2.5-2.5v-8.8 c0-1.4,1.1-2.5,2.5-2.5c0,0,0,0,0,0h41.1c0,0,0,0,0,0c1.4,0,2.5,1.1,2.5,2.5v1.5h1.5v-1.5c0-1.3-0.7-2.5-1.7-3.2 c1-0.7,1.7-1.9,1.7-3.2V4.1c0-2.2-1.8-4-4-4H4.6c-2.2,0-4,1.8-4,4v8.8c0,1.3,0.7,2.5,1.7,3.2c-1,0.7-1.7,1.9-1.7,3.2v8.8 c0,1.3,0.7,2.5,1.7,3.2c-1,0.7-1.7,1.9-1.7,3.2v8.8c0,2.2,1.8,4,4,4h18v-1.5h-18C3.2,46.1,2.1,44.9,2.1,43.6z M2.1,12.9V4.1 c0-1.4,1.1-2.5,2.5-2.5h41.1c1.4,0,2.5,1.1,2.5,2.5v8.8c0,1.4-1.1,2.5-2.5,2.5c0,0,0,0,0,0H4.6c0,0,0,0,0,0 C3.2,15.4,2.1,14.3,2.1,12.9z"></path> <path id="Shape_3_" class="st0" d="M6.7,39.1c0,1.7,1.4,3.1,3.1,3.1s3.1-1.4,3.1-3.1c0-1.7-1.4-3.1-3.1-3.1S6.7,37.4,6.7,39.1z M11.4,39.1c0,0.9-0.7,1.6-1.6,1.6c-0.9,0-1.6-0.7-1.6-1.6c0-0.9,0.7-1.6,1.6-1.6C10.7,37.5,11.4,38.2,11.4,39.1z"></path> <path id="Shape_4_" class="st0" d="M39.8,33c-3.2,0-5.8,2.6-5.8,5.7s2.6,5.7,5.8,5.7c3.2,0,5.8-2.6,5.8-5.7S43,33,39.8,33z M39.8,43c-2.4,0-4.3-1.9-4.3-4.3s1.9-4.3,4.3-4.3c2.4,0,4.3,1.9,4.3,4.3S42.2,43,39.8,43z"></path> <path id="Shape_5_" class="st0" d="M51.3,40.3v-3.1l3.1-1.8L50,28L47,29.7l-2.8-1.6v-3.5h-8.7v3.5l-2.8,1.6L29.6,28l-4.3,7.5 l3.1,1.8v3.1l-3.1,1.7l4.3,7.5l3.1-1.7l2.8,1.6v3.5h8.7v-3.5l2.8-1.6l3.1,1.7l4.3-7.5L51.3,40.3z M49.5,47.5L47,46.1l-4.3,2.5 v2.9h-5.8v-2.9l-4.3-2.5l-2.5,1.4l-2.9-4.9l2.5-1.4v-4.8l-2.5-1.4l2.9-4.9l2.5,1.4l4.3-2.5v-2.9h5.8V29l4.3,2.5l2.5-1.4l2.9,4.9 l-2.5,1.4v4.8l2.5,1.4L49.5,47.5z"></path> </g> </g> </g> </g> </svg> 