<?xml version="1.0" encoding="UTF-8"?> <svg xmlns="http://www.w3.org/2000/svg" id="Layer_1" data-name="Layer 1" viewBox="0 0 80 80"><defs><style>.cls-1{fill:#1b54f8;}</style></defs><g id="Technical_Component_Definition" data-name="Technical Component Definition"><g id="Group"><path id="Shape" class="cls-1" d="M19.86,20.87H12.33a1.34,1.34,0,0,1-.94-2.28l10.2-10.2a1.33,1.33,0,0,1,2.27.95v7.53A4,4,0,0,1,19.86,20.87ZM15.55,18.2h4.31a1.33,1.33,0,0,0,1.33-1.33V12.56Z"></path><path id="Shape-2" data-name="Shape" class="cls-1" d="M60.05,58.67H52.62a1.33,1.33,0,0,1-1.33-1.34V54.07c-.46-.17-.9-.35-1.34-.55l-2.3,2.31a1.34,1.34,0,0,1-1.89,0l-5.25-5.26a1.33,1.33,0,0,1,0-1.88l2.31-2.31a12.83,12.83,0,0,1-.55-1.33H39a1.33,1.33,0,0,1-1.33-1.33V36.29A1.33,1.33,0,0,1,39,35h3.27a12.83,12.83,0,0,1,.55-1.33l-2.31-2.31a1.33,1.33,0,0,1,0-1.88l5.25-5.25a1.38,1.38,0,0,1,1.89,0l2.3,2.3c.44-.2.88-.38,1.34-.55V22.67a1.33,1.33,0,0,1,1.33-1.34h7.43a1.34,1.34,0,0,1,1.33,1.34v3.26c.46.17.9.35,1.33.55L65,24.18a1.32,1.32,0,0,1,1.89,0l5.25,5.25a1.33,1.33,0,0,1,0,1.88l-2.31,2.31c.2.43.39.88.55,1.33h3.27A1.34,1.34,0,0,1,75,36.29v7.43a1.34,1.34,0,0,1-1.33,1.33H70.4c-.16.45-.35.9-.55,1.33l2.31,2.31a1.33,1.33,0,0,1,.39.94,1.32,1.32,0,0,1-.39.94l-5.25,5.26a1.34,1.34,0,0,1-1.89,0l-2.31-2.31c-.43.2-.87.38-1.33.55v3.26A1.34,1.34,0,0,1,60.05,58.67ZM54,56h4.76V53.09a1.34,1.34,0,0,1,1-1.28,12.3,12.3,0,0,0,2.64-1.08,1.32,1.32,0,0,1,1.59.22l2,2,3.37-3.37-2-2.05A1.33,1.33,0,0,1,67.06,46a12.51,12.51,0,0,0,1.08-2.64,1.35,1.35,0,0,1,1.29-1h2.9V37.62h-2.9a1.35,1.35,0,0,1-1.29-1A12.21,12.21,0,0,0,67.06,34a1.35,1.35,0,0,1,.22-1.6l2-2.05L66,27l-2,2.06a1.33,1.33,0,0,1-1.59.22,12,12,0,0,0-2.64-1.09,1.34,1.34,0,0,1-1-1.28V24H54v2.91a1.33,1.33,0,0,1-1,1.28,12.15,12.15,0,0,0-2.63,1.09,1.33,1.33,0,0,1-1.59-.22L46.7,27l-3.36,3.37,2,2.05a1.35,1.35,0,0,1,.22,1.6,12.24,12.24,0,0,0-1.09,2.63,1.33,1.33,0,0,1-1.28,1H40.33v4.76h2.91a1.33,1.33,0,0,1,1.28,1A12.32,12.32,0,0,0,45.61,46a1.33,1.33,0,0,1-.22,1.59l-2,2.05L46.7,53l2.06-2a1.32,1.32,0,0,1,1.59-.22A12.21,12.21,0,0,0,53,51.81a1.33,1.33,0,0,1,1,1.28V56Z"></path><path id="Shape-3" data-name="Shape" class="cls-1" d="M53.67,72H15a4,4,0,0,1-4-4V19L22,8H53.67a4,4,0,0,1,4,4V24H54v3.92l-1,.27a12.15,12.15,0,0,0-2.63,1.09l-.88.49L46.7,27l-3.36,3.37,2.76,2.77-.49.88a12.24,12.24,0,0,0-1.09,2.63l-.27,1H40.33v4.76h3.92l.27,1A12.32,12.32,0,0,0,45.61,46l.49.88-2.76,2.76L46.7,53l2.77-2.77.88.5A12.21,12.21,0,0,0,53,51.81l1,.28V56h3.72V68A4,4,0,0,1,53.67,72Zm-40-51.92V68A1.33,1.33,0,0,0,15,69.33H53.67A1.34,1.34,0,0,0,55,68V58.67H51.29v-4.6c-.46-.17-.9-.35-1.34-.55L46.7,56.77l-7.13-7.14,3.25-3.25a12.83,12.83,0,0,1-.55-1.33h-4.6V35h4.6a12.83,12.83,0,0,1,.55-1.33l-3.25-3.25,7.13-7.14L50,26.48c.44-.2.88-.38,1.34-.55v-4.6H55V12a1.34,1.34,0,0,0-1.33-1.33H23.08Z"></path><path id="Shape-4" data-name="Shape" class="cls-1" d="M56.33,48.92A8.92,8.92,0,1,1,65.25,40,8.93,8.93,0,0,1,56.33,48.92Zm0-15.17A6.25,6.25,0,1,0,62.58,40,6.26,6.26,0,0,0,56.33,33.75Z"></path><path id="Path" class="cls-1" d="M32.33,41.33H19a1.33,1.33,0,0,1,0-2.66H32.33a1.33,1.33,0,1,1,0,2.66Z"></path><path id="Path-2" data-name="Path" class="cls-1" d="M32.33,34.67H19A1.34,1.34,0,0,1,19,32H32.33a1.34,1.34,0,1,1,0,2.67Z"></path><path id="Path-3" data-name="Path" class="cls-1" d="M32.33,28H19a1.34,1.34,0,0,1,0-2.67H32.33a1.34,1.34,0,1,1,0,2.67Z"></path><path id="Path-4" data-name="Path" class="cls-1" d="M32.33,48H19a1.34,1.34,0,0,1,0-2.67H32.33a1.34,1.34,0,1,1,0,2.67Z"></path><path id="Path-5" data-name="Path" class="cls-1" d="M32.33,54.67H19A1.34,1.34,0,0,1,19,52H32.33a1.34,1.34,0,1,1,0,2.67Z"></path><path id="Path-6" data-name="Path" class="cls-1" d="M40.33,61.33H19a1.33,1.33,0,0,1,0-2.66H40.33a1.33,1.33,0,1,1,0,2.66Z"></path></g></g></svg> 