<?xml version="1.0" encoding="UTF-8"?> <svg xmlns="http://www.w3.org/2000/svg" id="Layer_1" data-name="Layer 1" viewBox="0 0 70 70"><defs><style>.cls-1{fill:none;stroke:#1b54f8;stroke-linecap:round;stroke-miterlimit:10;stroke-width:2px;}.cls-2{fill:#1b54f8;}</style></defs><path class="cls-1" d="M39.77,53.81,40.46,55,39.65,56"></path><path class="cls-1" d="M64.38,41.5l-1.29.17-.69-1.16.81-1.06a2.31,2.31,0,0,0-.43-3.17l-3.47-2.64a2.31,2.31,0,0,0-3.17.44l-.81,1.06L54,34.78l-.18-1.29a2.33,2.33,0,0,0-2.53-1.92L47,32.16a2.17,2.17,0,0,0-1.93,2.53L45.23,36l-1.1.75-1.06-.81a2.31,2.31,0,0,0-3.17.43l-2.69,3.53a2.31,2.31,0,0,0,.43,3.17l1.14.86-.31,1.24-1.29.17a2,2,0,0,0-1.83,2.4l.59,4.34A2.18,2.18,0,0,0,38.48,54l1.29-.18"></path><path class="cls-2" d="M57.13,45.11H52.64V40.62a1.27,1.27,0,0,0-1.27-1.27h0a1.27,1.27,0,0,0-1.27,1.27v4.49H45.61a1.27,1.27,0,0,0-1.27,1.27h0a1.27,1.27,0,0,0,1.27,1.27H50.1v4.49a1.27,1.27,0,0,0,1.27,1.27h0a1.27,1.27,0,0,0,1.27-1.27V47.65h4.49a1.27,1.27,0,0,0,1.27-1.27h0A1.27,1.27,0,0,0,57.13,45.11Z"></path><rect class="cls-1" x="3.34" y="14.49" width="63.09" height="43.55" rx="2.72"></rect><line class="cls-1" x1="7.7" y1="23.66" x2="62.15" y2="23.66"></line><circle class="cls-2" cx="8.37" cy="19.7" r="1.65"></circle><circle class="cls-2" cx="14.7" cy="19.7" r="1.65"></circle><circle class="cls-2" cx="21.02" cy="19.7" r="1.65"></circle></svg> 